<svg xmlns="http://www.w3.org/2000/svg" width="512" height="340" viewBox="0 0 512 340" fill="none"><metadata><rdf:RDF xmlns:rdf="http://www.w3.org/1999/02/22-rdf-syntax-ns#" xmlns:dc="http://purl.org/dc/elements/1.1/"><rdf:Description><dc:creator>RealFaviconGenerator</dc:creator><dc:source>https://realfavicongenerator.net</dc:source></rdf:Description></rdf:RDF></metadata><path d="M150.518 0C199.469 0 242.434 26.566 266.654 66.5283C296.685 26.0753 343.904 0 397.009 0C441.772 8.12173e-05 482.401 18.566 512.005 48.5977L473.67 89.0645C453.888 68.9959 426.867 56.6671 397.009 56.667C336.523 56.667 287.49 107.408 287.49 170C287.49 232.592 336.523 283.334 397.009 283.334C426.867 283.334 453.888 271.005 473.67 250.937L512.005 291.402C482.401 321.434 441.772 340 397.009 340C330.899 340 273.911 299.589 247.852 241.335C223.025 267.269 188.582 283.334 150.518 283.334H109.519V226.667H150.518C195.937 226.667 232.727 188.594 232.728 141.667C232.728 94.7397 195.937 56.667 150.518 56.667H0V0H150.518ZM150.588 113.33C165.709 113.33 177.968 126.016 177.968 141.664C177.968 157.312 165.709 169.997 150.588 169.997H54.7598V339.997H0V113.33H150.588Z" fill="#D01A8E"></path></svg>