<svg width="220" height="43" viewBox="0 0 220 43" fill="none" xmlns="http://www.w3.org/2000/svg">
<path d="M214.645 24.7194V36.8149C214.645 37.8135 214.857 38.525 215.282 38.9494C215.706 39.3488 216.443 39.5485 217.491 39.5485H220V42.432H216.929C215.032 42.432 213.609 41.9951 212.66 41.1213C211.712 40.2475 211.237 38.8121 211.237 36.8149V24.7194H208.579V21.9109H211.237V16.7432H214.645V21.9109H220V24.7194H214.645Z" fill="#30394A"/>
<path d="M186.843 32.1341C186.843 30.0121 187.268 28.1647 188.117 26.5919C188.965 24.9942 190.139 23.7584 191.637 22.8846C193.16 22.0109 194.895 21.574 196.842 21.574C199.363 21.574 201.435 22.1856 203.058 23.4089C204.706 24.6322 205.792 26.3298 206.316 28.5017H202.646C202.297 27.2535 201.61 26.2674 200.587 25.5434C199.588 24.8194 198.34 24.4574 196.842 24.4574C194.895 24.4574 193.322 25.1315 192.123 26.4796C190.925 27.8027 190.326 29.6875 190.326 32.1341C190.326 34.6056 190.925 36.5154 192.123 37.8635C193.322 39.2116 194.895 39.8857 196.842 39.8857C198.34 39.8857 199.588 39.5362 200.587 38.8371C201.585 38.1381 202.272 37.1395 202.646 35.8414H206.316C205.767 37.9384 204.668 39.6235 203.021 40.8967C201.373 42.145 199.313 42.7691 196.842 42.7691C194.895 42.7691 193.16 42.3322 191.637 41.4584C190.139 40.5847 188.965 39.3489 188.117 37.7512C187.268 36.1534 186.843 34.2811 186.843 32.1341Z" fill="#30394A"/>
<path d="M183.993 31.3851C183.993 32.0342 183.956 32.7208 183.881 33.4447H167.479C167.604 35.4669 168.29 37.0522 169.538 38.2005C170.812 39.324 172.347 39.8857 174.144 39.8857C175.617 39.8857 176.841 39.5486 177.814 38.8746C178.813 38.1756 179.512 37.2519 179.911 36.1035H183.581C183.032 38.0757 181.933 39.6859 180.286 40.9342C178.638 42.1575 176.591 42.7691 174.144 42.7691C172.197 42.7691 170.45 42.3322 168.902 41.4584C167.379 40.5847 166.181 39.3489 165.307 37.7512C164.433 36.1285 163.996 34.2561 163.996 32.1341C163.996 30.0121 164.421 28.1522 165.269 26.5545C166.118 24.9567 167.304 23.7334 168.827 22.8846C170.375 22.0109 172.147 21.574 174.144 21.574C176.092 21.574 177.814 21.9984 179.312 22.8472C180.81 23.696 181.958 24.8693 182.757 26.3672C183.581 27.8401 183.993 29.5128 183.993 31.3851ZM180.473 30.6736C180.473 29.3755 180.186 28.2645 179.612 27.3408C179.038 26.3922 178.251 25.6807 177.253 25.2064C176.279 24.7071 175.193 24.4574 173.995 24.4574C172.272 24.4574 170.799 25.0066 169.576 26.1051C168.378 27.2035 167.691 28.7264 167.516 30.6736H180.473Z" fill="#30394A"/>
<path d="M151.689 21.5366C154.186 21.5366 156.208 22.298 157.756 23.8209C159.304 25.3188 160.077 27.4907 160.077 30.3367V42.4322H156.707V30.8235C156.707 28.7764 156.195 27.2161 155.172 26.1426C154.148 25.0442 152.75 24.495 150.978 24.495C149.18 24.495 147.745 25.0567 146.671 26.1801C145.623 27.3035 145.099 28.9387 145.099 31.0857V42.4322H141.691V21.9111H145.099V24.832C145.773 23.7835 146.684 22.9721 147.832 22.3979C149.006 21.8237 150.291 21.5366 151.689 21.5366Z" fill="#30394A"/>
<path d="M128.111 21.5366C130.607 21.5366 132.629 22.298 134.177 23.8209C135.725 25.3188 136.499 27.4907 136.499 30.3367V42.4322H133.129V30.8235C133.129 28.7764 132.617 27.2161 131.593 26.1426C130.57 25.0442 129.172 24.495 127.399 24.495C125.602 24.495 124.166 25.0567 123.093 26.1801C122.044 27.3035 121.52 28.9387 121.52 31.0857V42.4322H118.112V21.9111H121.52V24.832C122.194 23.7835 123.105 22.9721 124.254 22.3979C125.427 21.8237 126.713 21.5366 128.111 21.5366Z" fill="#30394A"/>
<path d="M103.484 42.7691C101.561 42.7691 99.8138 42.3322 98.241 41.4584C96.6932 40.5847 95.4699 39.3489 94.5712 37.7512C93.6974 36.1285 93.2605 34.2561 93.2605 32.1341C93.2605 30.037 93.7099 28.1896 94.6086 26.5919C95.5323 24.9692 96.7806 23.7334 98.3534 22.8846C99.9261 22.0109 101.686 21.574 103.633 21.574C105.581 21.574 107.341 22.0109 108.913 22.8846C110.486 23.7334 111.722 24.9567 112.621 26.5545C113.544 28.1522 114.006 30.0121 114.006 32.1341C114.006 34.2561 113.532 36.1285 112.583 37.7512C111.66 39.3489 110.399 40.5847 108.801 41.4584C107.203 42.3322 105.431 42.7691 103.484 42.7691ZM103.484 39.7733C104.707 39.7733 105.855 39.4862 106.929 38.912C108.002 38.3378 108.864 37.4766 109.513 36.3282C110.187 35.1798 110.524 33.7818 110.524 32.1341C110.524 30.4864 110.199 29.0884 109.55 27.94C108.901 26.7916 108.052 25.9428 107.004 25.3936C105.955 24.8194 104.819 24.5323 103.596 24.5323C102.348 24.5323 101.199 24.8194 100.151 25.3936C99.1273 25.9428 98.3034 26.7916 97.6793 27.94C97.0552 29.0884 96.7431 30.4864 96.7431 32.1341C96.7431 33.8067 97.0427 35.2172 97.6419 36.3656C98.266 37.514 99.0898 38.3753 100.113 38.9495C101.137 39.4987 102.26 39.7733 103.484 39.7733Z" fill="#30394A"/>
<path d="M70.8887 32.1341C70.8887 30.0121 71.3131 28.1647 72.1619 26.5919C73.0107 24.9942 74.1841 23.7584 75.6819 22.8846C77.2048 22.0109 78.9399 21.574 80.8871 21.574C83.4086 21.574 85.4806 22.1856 87.1033 23.4089C88.751 24.6322 89.837 26.3298 90.3613 28.5017H86.6914C86.3419 27.2535 85.6554 26.2674 84.6318 25.5434C83.6332 24.8194 82.385 24.4574 80.8871 24.4574C78.9399 24.4574 77.3671 25.1315 76.1688 26.4796C74.9704 27.8027 74.3713 29.6875 74.3713 32.1341C74.3713 34.6056 74.9704 36.5154 76.1688 37.8635C77.3671 39.2116 78.9399 39.8857 80.8871 39.8857C82.385 39.8857 83.6332 39.5362 84.6318 38.8371C85.6304 38.1381 86.317 37.1395 86.6914 35.8414H90.3613C89.812 37.9384 88.7136 39.6235 87.0659 40.8967C85.4182 42.145 83.3586 42.7691 80.8871 42.7691C78.9399 42.7691 77.2048 42.3322 75.6819 41.4584C74.1841 40.5847 73.0107 39.3489 72.1619 37.7512C71.3131 36.1534 70.8887 34.2811 70.8887 32.1341Z" fill="#30394A"/>
<path d="M19.5039 14.2139C21.4622 14.2139 23.0496 15.8044 23.0498 17.7666C23.0498 19.729 21.4623 21.3202 19.5039 21.3203H7.09277V42.6396H0V14.2139H19.5039ZM19.4941 0C25.8346 0 31.3993 3.33251 34.5361 8.34473C38.4255 3.27114 44.5407 0 51.4189 0C57.2165 7.86403e-05 62.4784 2.3285 66.3125 6.09473L61.3477 11.1699C58.7856 8.65317 55.286 7.10652 51.4189 7.10645C43.585 7.10645 37.2344 13.4706 37.2344 21.3203C37.2346 29.1699 43.5852 35.5332 51.4189 35.5332C55.286 35.5331 58.7856 33.9865 61.3477 31.4697L66.3125 36.5449C62.4784 40.3112 57.2165 42.6396 51.4189 42.6396C42.8562 42.6396 35.4755 37.5708 32.1006 30.2646C28.8851 33.5173 24.4244 35.5332 19.4941 35.5332H14.1846V28.4268H19.4941C25.3767 28.4268 30.1425 23.6518 30.1426 17.7666C30.1426 11.8814 25.3767 7.10645 19.4941 7.10645H0V0H19.4941Z" fill="#B81A80"/>
</svg>
