<svg width="44" height="41" viewBox="0 0 44 41" fill="none" xmlns="http://www.w3.org/2000/svg">
<path d="M12.9414 9.43164C14.2408 9.43169 15.2938 10.4871 15.294 11.7891C15.294 13.0912 14.2409 14.1474 12.9414 14.1475H4.70608V28.293H2.67029e-05V9.43164H12.9414ZM12.9356 0C17.1426 0.000113593 20.8328 2.21238 22.9141 5.53809C25.4948 2.17083 29.5537 0 34.1182 0C37.9648 0.00012191 41.4561 1.54514 44 4.04395L40.7061 7.41113C39.0061 5.74129 36.6839 4.71594 34.1182 4.71582C28.9202 4.71582 24.7061 8.93796 24.7061 14.1465C24.7061 19.355 28.9202 23.5771 34.1182 23.5771C36.6839 23.577 39.0061 22.5517 40.7061 20.8818L44 24.249C41.4561 26.7478 37.9648 28.2928 34.1182 28.293C28.4361 28.293 23.5389 24.9286 21.2998 20.0801C19.1663 22.2387 16.2072 23.5771 12.9356 23.5771H9.41214V18.8613H12.9356C16.8385 18.8612 19.9998 15.6937 20 11.7891C20 7.88419 16.8386 4.716 12.9356 4.71582H2.67029e-05V0H12.9356Z" fill="#B81A80"/>
<path d="M42.4198 35.5607V39.1298C42.4198 39.4245 42.4825 39.6344 42.6077 39.7597C42.7329 39.8775 42.9502 39.9365 43.2596 39.9365H44V40.7873H43.0939C42.534 40.7873 42.1141 40.6584 41.8342 40.4006C41.5543 40.1427 41.4143 39.7192 41.4143 39.1298V35.5607H40.6297V34.7319H41.4143V33.207H42.4198V34.7319H44V35.5607H42.4198Z" fill="#30394A"/>
<path d="M34.2161 37.7489C34.2161 37.1227 34.3413 36.5776 34.5918 36.1135C34.8423 35.642 35.1885 35.2774 35.6305 35.0196C36.0799 34.7617 36.5918 34.6328 37.1664 34.6328C37.9105 34.6328 38.5219 34.8133 39.0007 35.1743C39.4869 35.5352 39.8074 36.0362 39.9621 36.6771H38.8792C38.7761 36.3087 38.5735 36.0177 38.2714 35.8041C37.9768 35.5905 37.6084 35.4837 37.1664 35.4837C36.5918 35.4837 36.1277 35.6826 35.7741 36.0804C35.4205 36.4708 35.2437 37.027 35.2437 37.7489C35.2437 38.4782 35.4205 39.0418 35.7741 39.4396C36.1277 39.8374 36.5918 40.0363 37.1664 40.0363C37.6084 40.0363 37.9768 39.9331 38.2714 39.7269C38.5661 39.5206 38.7687 39.2259 38.8792 38.8429H39.9621C39.8 39.4617 39.4759 39.9589 38.9897 40.3346C38.5035 40.7029 37.8957 40.8871 37.1664 40.8871C36.5918 40.8871 36.0799 40.7582 35.6305 40.5004C35.1885 40.2425 34.8423 39.8779 34.5918 39.4064C34.3413 38.9349 34.2161 38.3824 34.2161 37.7489Z" fill="#30394A"/>
<path d="M33.375 37.5279C33.375 37.7194 33.3639 37.922 33.3418 38.1357H28.5019C28.5388 38.7324 28.7414 39.2001 29.1097 39.539C29.4854 39.8705 29.9384 40.0363 30.4688 40.0363C30.9035 40.0363 31.2644 39.9368 31.5517 39.7379C31.8464 39.5316 32.0527 39.2591 32.1705 38.9202H33.2534C33.0914 39.5022 32.7672 39.9773 32.281 40.3457C31.7948 40.7066 31.1908 40.8871 30.4688 40.8871C29.8942 40.8871 29.3786 40.7582 28.9218 40.5004C28.4725 40.2425 28.1189 39.8779 27.861 39.4064C27.6032 38.9276 27.4743 38.3751 27.4743 37.7489C27.4743 37.1227 27.5995 36.5739 27.85 36.1025C28.1005 35.631 28.4504 35.27 28.8997 35.0196C29.3565 34.7617 29.8795 34.6328 30.4688 34.6328C31.0434 34.6328 31.5517 34.758 31.9937 35.0085C32.4357 35.259 32.7746 35.6052 33.0103 36.0472C33.2534 36.4818 33.375 36.9754 33.375 37.5279ZM32.3363 37.318C32.3363 36.9349 32.2516 36.6071 32.0821 36.3345C31.9127 36.0546 31.6807 35.8446 31.386 35.7047C31.0987 35.5573 30.7782 35.4837 30.4246 35.4837C29.9163 35.4837 29.4817 35.6457 29.1207 35.9699C28.7671 36.294 28.5646 36.7434 28.513 37.318H32.3363Z" fill="#30394A"/>
<path d="M23.8428 34.6221C24.5794 34.6221 25.1761 34.8468 25.6328 35.2961C26.0896 35.7381 26.3179 36.379 26.3179 37.2188V40.788H25.3234V37.3625C25.3234 36.7584 25.1724 36.298 24.8704 35.9812C24.5684 35.6571 24.1558 35.495 23.6328 35.495C23.1024 35.495 22.6788 35.6608 22.3621 35.9923C22.0527 36.3238 21.898 36.8063 21.898 37.4398V40.788H20.8924V34.7326H21.898V35.5945C22.0969 35.2851 22.3657 35.0457 22.7046 34.8762C23.0508 34.7068 23.4302 34.6221 23.8428 34.6221Z" fill="#30394A"/>
<path d="M16.8852 34.6221C17.6218 34.6221 18.2185 34.8468 18.6753 35.2961C19.132 35.7381 19.3603 36.379 19.3603 37.2188V40.788H18.3659V37.3625C18.3659 36.7584 18.2148 36.298 17.9128 35.9812C17.6108 35.6571 17.1982 35.495 16.6752 35.495C16.1448 35.495 15.7212 35.6608 15.4045 35.9923C15.0951 36.3238 14.9404 36.8063 14.9404 37.4398V40.788H13.9348V34.7326H14.9404V35.5945C15.1393 35.2851 15.4081 35.0457 15.747 34.8762C16.0932 34.7068 16.4726 34.6221 16.8852 34.6221Z" fill="#30394A"/>
<path d="M9.61815 40.8871C9.05092 40.8871 8.53526 40.7582 8.07116 40.5004C7.61442 40.2425 7.25346 39.8779 6.98826 39.4064C6.73043 38.9276 6.60151 38.3751 6.60151 37.7489C6.60151 37.1301 6.73411 36.585 6.99931 36.1135C7.27187 35.6347 7.64021 35.27 8.10431 35.0196C8.56841 34.7617 9.08775 34.6328 9.66235 34.6328C10.237 34.6328 10.7563 34.7617 11.2204 35.0196C11.6845 35.27 12.0491 35.631 12.3143 36.1025C12.5869 36.5739 12.7232 37.1227 12.7232 37.7489C12.7232 38.3751 12.5832 38.9276 12.3033 39.4064C12.0307 39.8779 11.6587 40.2425 11.1873 40.5004C10.7158 40.7582 10.1928 40.8871 9.61815 40.8871ZM9.61815 40.0031C9.97912 40.0031 10.318 39.9184 10.6348 39.749C10.9515 39.5795 11.2057 39.3254 11.3972 38.9865C11.5961 38.6476 11.6955 38.2351 11.6955 37.7489C11.6955 37.2627 11.5998 36.8502 11.4082 36.5113C11.2167 36.1724 10.9663 35.922 10.6569 35.7599C10.3475 35.5905 10.0123 35.5058 9.6513 35.5058C9.28297 35.5058 8.9441 35.5905 8.63471 35.7599C8.33267 35.922 8.08957 36.1724 7.90541 36.5113C7.72124 36.8502 7.62916 37.2627 7.62916 37.7489C7.62916 38.2425 7.71756 38.6587 7.89436 38.9976C8.07852 39.3364 8.32162 39.5906 8.62366 39.76C8.92569 39.9221 9.25719 40.0031 9.61815 40.0031Z" fill="#30394A"/>
<path d="M0 37.7489C0 37.1227 0.125233 36.5776 0.375699 36.1135C0.626165 35.642 0.972398 35.2774 1.4144 35.0196C1.86376 34.7617 2.37575 34.6328 2.95034 34.6328C3.69438 34.6328 4.30581 34.8133 4.78464 35.1743C5.27084 35.5352 5.59129 36.0362 5.74599 36.6771H4.66309C4.55996 36.3087 4.35737 36.0177 4.05534 35.8041C3.76068 35.5905 3.39234 35.4837 2.95034 35.4837C2.37575 35.4837 1.91165 35.6826 1.55805 36.0804C1.20445 36.4708 1.02765 37.027 1.02765 37.7489C1.02765 38.4782 1.20445 39.0418 1.55805 39.4396C1.91165 39.8374 2.37575 40.0363 2.95034 40.0363C3.39234 40.0363 3.76068 39.9331 4.05534 39.7269C4.35001 39.5206 4.55259 39.2259 4.66309 38.8429H5.74599C5.58392 39.4617 5.25979 39.9589 4.77359 40.3346C4.28739 40.7029 3.67964 40.8871 2.95034 40.8871C2.37575 40.8871 1.86376 40.7582 1.4144 40.5004C0.972398 40.2425 0.626165 39.8779 0.375699 39.4064C0.125233 38.9349 0 38.3824 0 37.7489Z" fill="#30394A"/>
</svg>
