<svg width="95" height="61" viewBox="0 0 95 61" fill="none" xmlns="http://www.w3.org/2000/svg">
<path d="M27.9404 20.3203C30.7461 20.3203 33.0205 22.5948 33.0205 25.4004C33.0205 28.206 30.7461 30.4804 27.9404 30.4805H10.1602V60.9609H0V20.3203H27.9404ZM27.9277 0C37.0107 0.000133697 44.981 4.76494 49.4746 11.9307C55.0464 4.67666 63.8073 0 73.6611 0C81.9666 4.6631e-05 89.5054 3.32931 94.998 8.71387L87.8848 15.9688C84.2143 12.3706 79.201 10.1602 73.6611 10.1602C62.4386 10.1602 53.3408 19.2579 53.3408 30.4805C53.3409 41.703 62.4386 50.8008 73.6611 50.8008C79.2009 50.8007 84.2143 48.5903 87.8848 44.9922L94.998 52.2471C89.5054 57.6316 81.9666 60.9609 73.6611 60.9609C61.3945 60.9609 50.8222 53.7138 45.9873 43.2686C41.381 47.9191 34.9908 50.8007 27.9277 50.8008H20.3203V40.6406H27.9277C36.3547 40.6404 43.1806 33.8141 43.1807 25.4004C43.1807 16.9866 36.3547 10.1604 27.9277 10.1602H0V0H27.9277Z" fill="#B81A80"/>
</svg>
